<svg width="1" height="1" viewBox="0 0 1 1" fill="none" xmlns="http://www.w3.org/2000/svg">
<path d="M0.13163 0.0262644C0.0734988 0.0262644 0.0263672 0.073396 0.0263672 0.131528V0.86837C0.0263672 0.926501 0.0734988 0.973633 0.13163 0.973633H0.868472C0.926604 0.973633 0.973736 0.926501 0.973736 0.86837V0.131528C0.973736 0.073396 0.926604 0.0262644 0.868472 0.0262644H0.13163Z" fill="#8BC84B"/>
<path d="M0.789452 0.250077C0.806288 0.250077 0.823308 0.256314 0.836163 0.269156C0.861847 0.294867 0.861847 0.336867 0.836163 0.362577L0.428268 0.770472C0.415426 0.783314 0.3984 0.789551 0.381558 0.789551C0.364715 0.789551 0.347689 0.783314 0.334847 0.770472L0.163794 0.599419C0.13811 0.573709 0.13811 0.531709 0.163794 0.505998C0.189479 0.480314 0.231531 0.480314 0.257215 0.505998L0.381558 0.630998L0.742742 0.269156C0.755597 0.256314 0.772617 0.250077 0.789452 0.250077Z" fill="white"/>
</svg>
