<svg xmlns="http://www.w3.org/2000/svg" width="102" height="34" viewBox="0 0 102 34">
    <g fill="none" fill-rule="evenodd">
        <path fill="#A6FF00" d="M16.996 0c9.38 0 16.996 7.616 16.996 16.996 0 9.38-7.615 16.996-16.996 16.996C7.616 33.992 0 26.377 0 16.996 0 7.616 7.616 0 16.996 0zm1.155 8.499h-.728c-1.607 0-2.925.016-3.954.05-1.03.033-1.837.091-2.423.175-1.088.15-1.945.406-2.573.766-.628.36-1.134.866-1.519 1.519-.167.3-.305.623-.414.966-.109.343-.197.753-.264 1.23s-.113 1.038-.138 1.682c-.025.645-.037 1.419-.037 2.323 0 .786.008 1.456.025 2.008.016.552.05 1.034.1 1.444.05.41.113.77.188 1.08.076.309.18.606.314.89.285.703.707 1.256 1.268 1.657.56.402 1.301.703 2.222.904.268.05.569.096.904.138.334.042.749.075 1.242.1.494.026 1.084.042 1.77.05.61.008 1.326.012 2.147.013h3.427c.836 0 1.518-.004 2.046-.012.527-.009.933-.017 1.217-.025.285-.009.494-.021.628-.038 1.054-.117 1.891-.372 2.51-.766.62-.393 1.072-.983 1.356-1.77.084-.217.15-.456.201-.715.05-.26.092-.565.125-.916.034-.352.059-.77.076-1.256.014-.404.022-.878.024-1.422v-2.645H16.47v3.113h6.452v.74c0 .076-.008.164-.025.264-.067.82-.594 1.314-1.582 1.482-.15.033-.28.054-.389.062-.109.009-.263.017-.464.026-.14.005-.322.01-.545.011h-2.317c-.874 0-1.573-.004-2.097-.011-.61-.009-1.079-.017-1.405-.026-.327-.008-.57-.029-.729-.062-.158-.034-.322-.076-.489-.126-.335-.1-.607-.234-.816-.401-.21-.168-.377-.402-.502-.703-.126-.302-.213-.687-.264-1.155-.05-.469-.075-1.046-.075-1.733 0-.267.004-.556.013-.866l.025-.903c.008-.293.02-.553.037-.779.017-.226.034-.397.05-.514.067-.586.235-1.017.503-1.293.267-.276.694-.456 1.28-.54.1-.017.293-.03.577-.038.285-.008.636-.016 1.055-.025.418-.008.879-.017 1.38-.025.503-.008 1.022-.012 1.557-.012l1.808.025h1.28c.753 0 1.285.138 1.594.414.31.276.481.757.515 1.443h4.996c0-.87-.055-1.615-.163-2.234-.11-.62-.293-1.142-.553-1.569-.259-.427-.606-.77-1.041-1.03-.436-.259-.98-.472-1.632-.64-.268-.066-.574-.12-.917-.163-.343-.042-.778-.075-1.305-.1-.527-.025-1.184-.042-1.97-.05-.614-.007-1.334-.01-2.16-.012z"/>
        <path fill="#FFF" fill-rule="nonzero" d="M53.07 24.005c1.176-.087 2.1-.237 2.775-.448.925-.27 1.604-.733 2.038-1.388.434-.655.65-1.551.65-2.688 0-.829-.1-1.518-.303-2.067-.202-.549-.559-.983-1.07-1.3-.51-.319-1.2-.545-2.066-.68-.867-.135-1.966-.202-3.295-.202H48.3c-.674 0-1.219-.015-1.633-.044-.414-.028-.747-.077-.997-.144-.25-.067-.42-.169-.506-.303-.087-.135-.13-.309-.13-.52 0-.425.298-.719.896-.882.597-.164 1.667-.246 3.208-.246.675 0 1.229.014 1.662.043.434.03.78.077 1.04.145.261.067.444.164.55.289.106.125.178.284.217.477h5.232c-.039-.867-.178-1.547-.42-2.038-.24-.491-.62-.872-1.141-1.142-.308-.173-.655-.313-1.04-.419-.386-.106-.853-.193-1.403-.26-.549-.068-1.209-.116-1.98-.145-.77-.028-1.686-.043-2.746-.043-3.16 0-5.386.183-6.677.55-1.695.5-2.543 1.84-2.543 4.017 0 .79.115 1.45.347 1.98.23.53.616.954 1.156 1.272.54.318 1.262.544 2.168.68.905.134 2.033.201 3.382.201h4.104c.385 0 .703.02.954.058.963.058 1.445.415 1.445 1.07 0 .462-.284.785-.853.968-.568.183-1.584.275-3.049.275-.925 0-1.681-.02-2.27-.058-.587-.039-1.05-.106-1.387-.202-.337-.097-.568-.241-.693-.434s-.188-.434-.188-.723h-5.26c.018 1.812.635 3.026 1.85 3.642.307.174.645.314 1.01.42.367.106.805.187 1.316.245.51.058 1.132.101 1.864.13.676.027 1.484.041 2.422.043h.238c1.907 0 3.449-.043 4.624-.13zm8.36-.188h4.972V7.223H61.43v16.594zm17.32.318c.348 0 .723-.005 1.128-.015.405-.01.805-.024 1.2-.043l1.156-.058c.375-.02.708-.038.997-.058.443-.038.834-.082 1.17-.13.338-.048.641-.11.911-.188.27-.077.515-.164.737-.26.222-.096.449-.222.68-.376.404-.23.732-.496.982-.795.25-.298.448-.679.593-1.141.144-.463.241-1.046.289-1.749.048-.703.072-1.575.072-2.616 0-1.118-.034-1.97-.101-2.558-.067-.588-.197-1.094-.39-1.518-.27-.558-.699-1.035-1.287-1.43-.587-.395-1.286-.67-2.095-.824-.694-.116-1.556-.207-2.587-.275-1.031-.067-2.106-.1-3.223-.1-1.83 0-3.324.066-4.48.201-1.157.135-2.072.357-2.746.665-.463.212-.843.467-1.142.766-.299.299-.535.68-.708 1.142-.174.462-.299 1.036-.376 1.72-.077.684-.116 1.517-.116 2.5 0 .925.024 1.705.073 2.341.048.636.13 1.171.245 1.605.116.433.275.79.477 1.07.203.279.468.543.795.794.309.25.68.458 1.113.621.434.164.954.3 1.56.405.608.106 1.326.183 2.154.231.83.049 1.802.073 2.92.073zm.376-3.671c-1.04 0-1.873-.034-2.5-.101-.626-.068-1.103-.222-1.43-.463-.328-.24-.54-.588-.636-1.04-.097-.453-.145-1.065-.145-1.836 0-.713.053-1.291.159-1.734.106-.444.318-.786.636-1.026.318-.241.775-.4 1.373-.477.597-.077 1.387-.116 2.37-.116 1.06 0 1.903.034 2.53.101.625.068 1.098.222 1.416.463.318.24.525.592.62 1.055.098.462.146 1.079.146 1.85 0 .732-.048 1.32-.145 1.763-.096.443-.303.78-.621 1.011-.318.232-.776.381-1.373.449-.598.067-1.398.1-2.4.1zm22.091 3.57v-3.498c-.922.006-1.476-.013-1.663-.058-.28-.067-.5-.193-.665-.376-.164-.183-.28-.433-.346-.751-.068-.318-.102-.718-.102-1.2V13.7h2.776v-3.382h-2.776v-3.18h-5.087v3.18H90.81V13.7h2.573v5.492c0 .52.024.968.072 1.344.049.376.12.708.217.997.096.29.231.55.404.78.174.232.386.453.637.665.27.232.563.42.881.564.318.145.699.26 1.142.347.444.087.973.15 1.59.188.41.026 1.375.011 2.891-.044z"/>
    </g>
</svg>
