<svg width="430" height="86" viewBox="0 0 430 86" fill="none" xmlns="http://www.w3.org/2000/svg">
<path d="M214.5 55.3L203.3 48.7L202.5 50C200 54 196.5 56 192.2 56C184.8 56 179.3 50.4 179.3 43.1C179.3 35.7 184.9 30.2 192.2 30.2C196.6 30.2 199.8 32.1 202.5 36.2L203.3 37.5L214.5 30.9L213.5 29.5C208.1 21.7 201.2 18 192.1 18C175 18 165.8 31 165.8 43.2C165.8 55.4 175 68.4 192.1 68.4C200.8 68.4 209 64 213.5 56.8L214.5 55.3Z" fill="#B8BBB9"/>
<path d="M213.9 68.2H229.3L233.9 56.8H257L261.6 68.2H277.1L249.5 1.5H235.7L239.4 10.4L213.9 68.2V68.2ZM245.6 27.7999L251.8 43.5H239.2L245.6 27.7999Z" fill="#B8BBB9"/>
<path d="M283.5 68.3H297V38.3H305.8V25.7H297V19.8C297 17.2 298.7 14.5 301.9 14.5C303.6 14.5 304.7 14.8001 305.7 15.2L307.2 15.8L312.8 3.50001L311.3 3C308.8 1.99998 305.3 1.60004 302.8 1.60004C296.7 1.60004 291.6 3.60004 288.2 7.40001C285.2 10.7 283.5 15.3 283.5 20.4V25.8H277.5V38.4H283.5V68.3Z" fill="#B8BBB9"/>
<path d="M145.3 29.8V68.2H160V1.10004L131.1 22.9L102.1 1.10004V68.1L116.8 68.2V29.8L131.1 40.4L145.3 29.8Z" fill="#B8BBB9"/>
<path d="M336.3 18C319.3 18 310.1 30.9 310.1 43.1C310.1 55.3 319.3 68.2 336.3 68.2C344.1 68.0999 351.4 64.6 357.1 58.1L346.1 52.1C343.3 55 339.8 56.5 336 56.5C330.4 56.5 325.5 52.8 324.2 47.9H361V44.6C361.1 26.3 346.6 18.1 336.3 18ZM324.5 37C326.3 32.4 330.1 29.8 335 29.8C340 29.8 343.9 32.4 345.9 37.1L324.5 37Z" fill="#B8BBB9"/>
<path d="M391.6 18.1C374.6 18.1 365.4 31 365.4 43.2C365.4 55.4 374.6 68.3 391.6 68.3C399.4 68.1998 406.7 64.7 412.4 58.2L401.4 52.2C398.6 55.1 395.1 56.6 391.3 56.6C385.7 56.6 380.8 52.8999 379.5 48H416.3V44.7C416.4 26.4 401.9 18.1 391.6 18.1V18.1ZM379.8 37C381.6 32.4 385.4 29.7 390.3 29.8C395.3 29.8 399.2 32.4 401.2 37.1L379.8 37Z" fill="#B8BBB9"/>
<path d="M414.6 15.8H420.3V16.8999H418V22.9H416.8V16.8999H414.6V15.8Z" fill="#B8BBB9"/>
<path d="M421.2 15.8H422.9L424.9 21.3L426.8 15.8H428.5V22.9H427.3V17.4L425.3 22.9H424.3L422.3 17.4V22.9H421.1V15.8H421.2Z" fill="#B8BBB9"/>
<path d="M37.3 17.8L1 1V67.8L37.3 84.6V68.2L15.9 58.3V24.3L37.3 34.2V17.8Z" fill="#B8BBB9"/>
<path d="M37.2998 17.8L73.6998 1V67.8L37.2998 84.6V68.2L58.7998 58.3V24.3L37.2998 34.2V17.8Z" fill="#484848"/>
</svg>
