<svg width="512" height="512" viewBox="0 0 512 512" fill="none" xmlns="http://www.w3.org/2000/svg">
<g clip-path="url(#clip0)">
<path d="M461.144 60.883L260.312 0.633C257.503 -0.211 254.504 -0.211 251.692 0.633L50.858 60.883C44.513 62.786 40.168 68.626 40.168 75.25V296.166C40.168 324.9 51.8 354.314 74.741 383.591C92.263 405.951 116.503 428.404 146.789 450.327C197.666 487.155 247.764 509.747 249.872 510.69C251.822 511.563 253.911 512 256.001 512C258.09 512 260.18 511.564 262.13 510.69C264.238 509.747 314.335 487.155 365.212 450.327C395.497 428.404 419.737 405.951 437.259 383.591C460.2 354.315 471.832 324.901 471.832 296.166V75.25C471.833 68.626 467.489 62.786 461.144 60.883ZM441.833 296.166C441.833 347.018 390.81 394.7 348.007 425.747C309.633 453.58 270.716 473.33 256.002 480.425C241.288 473.33 202.37 453.58 163.996 425.747C121.192 394.7 70.168 347.018 70.168 296.166V86.41L256.001 30.66L441.833 86.41V296.166Z" fill="#083946"/>
</g>
<defs>
<clipPath id="clip0">
<rect width="512" height="512" fill="white"/>
</clipPath>
</defs>
</svg>
